<svg width="1728" height="829" viewBox="0 0 1728 829" fill="none" xmlns="http://www.w3.org/2000/svg">
<rect y="77.6177" width="1737" height="590.757" fill="#E4F6FF"/>
<path d="M103 787.496C12.2 830.617 -25.5 724.611 -33 666.218L1805 605.849C1783.67 666.398 1736.7 783.4 1719.5 767.014C1698 746.531 1647.5 767.014 1637 721.737C1628.6 685.515 1580.5 706.644 1557.5 721.737C1528.33 753.718 1466.3 811.644 1451.5 787.496C1433 757.311 1351.5 807.44 1320.5 748.687C1289.5 689.935 1216 798.815 1209.5 767.014C1203 735.212 1111.5 748.687 1085 775.638C1058.5 802.588 880.5 857.568 898 787.496C912 731.439 799.833 756.233 742 775.638C708.167 793.425 624.6 829 561 829C481.5 829 481.5 774.021 439.5 748.687C397.5 723.354 360 809.057 297.5 798.815C235 788.574 216.5 733.595 103 787.496Z" fill="#E4F6FF"/>
<path d="M190.5 56.4488C171.5 20.874 75.5 -10.9277 -17 90.4065C572.5 103.882 1750.3 122.747 1745.5 90.4065C1739.5 49.9807 1655 69.9241 1637.5 36.5054C1620 3.08662 1499.5 66.69 1499.5 12.7889C1499.5 -41.1123 1176.5 95.2576 1173 56.4488C1169.5 17.64 1036 11.1718 943.5 21.413C851 31.6542 813 63.4559 777 36.5054C741 9.55477 692 2.54764 554 56.4488C416 110.35 465.5 12.7889 387 12.7889C308.5 12.7889 209.5 92.0236 190.5 56.4488Z" fill="#E4F6FF"/>
</svg>
