<svg width="1728" height="1053" viewBox="0 0 1728 1053" fill="none" xmlns="http://www.w3.org/2000/svg">
<rect x="-5.7627" width="1854.76" height="882.18" fill="#062635"/>
<path d="M-75.9474 1017.02L-75.9474 879.117L1912 826.02C1903.28 919.432 1884.13 1093.87 1877.29 1044.31C1868.75 982.362 1860.29 926.315 1843.21 974.25C1826.12 1022.18 1709.93 974.25 1683.55 974.25C1628.64 974.25 1630.16 916.728 1529.24 998.586C1428.32 1080.44 1320.99 986.049 1293.22 949.914C1265.46 913.778 1180.56 955.813 1123.42 998.586C1066.29 1041.36 970.176 997.849 939.206 949.914C908.237 901.979 816.395 1019.23 762.464 1017.02C708.534 1014.81 649.264 995.636 597.469 949.914C545.675 904.191 439.95 921.153 406.844 974.25C373.739 1027.35 264.053 1014.13 224.763 949.914C160.687 845.194 -4.30791 1144.6 -75.9474 1017.02L-75.9474 1044.31C-81.643 1087.33 -136.115 909.871 -75.9474 1017.02Z" fill="#062635"/>
</svg>
