<svg width="1728" height="1139" viewBox="0 0 1728 1139" fill="none" xmlns="http://www.w3.org/2000/svg">
<rect x="-2" y="163" width="1737" height="830" fill="#062635"/>
<path d="M-67.7285 1108.25L-67.7285 990.382L1794 945C1785.83 1024.84 1767.9 1173.93 1761.5 1131.57C1753.49 1078.63 1745.58 1030.72 1729.57 1071.69C1713.57 1112.66 1604.76 1071.69 1580.06 1071.69C1528.63 1071.69 1530.05 1022.53 1435.54 1092.49C1341.03 1162.46 1240.51 1081.78 1214.51 1050.89C1188.51 1020.01 1109 1055.93 1055.49 1092.49C1001.99 1129.05 911.975 1091.86 882.971 1050.89C853.968 1009.92 767.957 1110.14 717.451 1108.25C666.945 1106.36 611.438 1089.97 562.932 1050.89C514.426 1011.81 415.414 1026.31 384.41 1071.69C353.406 1117.07 250.685 1105.77 213.889 1050.89C153.881 961.388 -0.637573 1217.29 -67.7285 1108.25L-67.7285 1131.57C-73.0625 1168.34 -124.076 1016.67 -67.7285 1108.25Z" fill="#062635"/>
<path d="M-77.7285 39.7848L-77.7285 192.284L1784 251C1775.83 147.703 1757.9 -45.1906 1751.5 9.61121C1743.49 78.1134 1735.58 140.092 1719.57 87.084C1703.57 34.0763 1594.76 87.084 1570.06 87.084C1518.63 87.084 1520.05 150.693 1425.54 60.1724C1331.03 -30.3484 1230.51 74.0359 1204.51 113.996C1178.51 153.955 1099 107.472 1045.49 60.1724C991.985 12.8732 901.975 60.9879 872.971 113.996C843.968 167.003 757.957 37.3383 707.451 39.7848C656.945 42.2313 601.438 63.4344 552.932 113.996C504.426 164.557 405.414 145.8 374.41 87.084C343.406 28.3678 240.685 42.9877 203.889 113.996C143.881 229.797 -10.6376 -101.297 -77.7285 39.7848L-77.7285 9.61121C-83.0625 -37.9598 -134.076 158.276 -77.7285 39.7848Z" fill="#062635"/>
</svg>
