<svg width="537" height="504" viewBox="0 0 537 504" fill="none" xmlns="http://www.w3.org/2000/svg">
<g clip-path="url(#clip0_3_230)">
<path d="M287.21 70.7914C305.025 56.1886 330.106 50.5905 349.731 61.9828C327.638 72.627 309.65 91.5995 298.95 115.544C294.853 124.794 291.165 135.557 282.713 139.832C277.454 142.493 271.247 141.979 265.801 139.831C260.355 137.683 255.511 134.033 250.734 130.422L249.302 130.231C257.803 107.537 269.396 85.3943 287.21 70.7914Z" fill="#F0F0F0"/>
<path d="M349.573 62.4679C331.249 63.1049 313.573 70.1323 299.053 82.5519C295.885 85.1639 293.107 88.3139 290.823 91.8857C288.699 95.4449 287.472 99.5704 287.271 103.833C287.011 107.804 287.16 111.899 286.035 115.73C285.433 117.682 284.466 119.471 283.197 120.979C281.929 122.487 280.387 123.68 278.674 124.48C274.451 126.598 269.795 126.906 265.231 127.031C260.165 127.171 254.9 127.226 250.293 129.874C249.734 130.194 249.318 129.214 249.876 128.894C257.892 124.288 267.26 127.293 275.686 124.552C279.618 123.273 283.226 120.672 284.804 116.319C286.185 112.513 286.035 108.29 286.266 104.267C286.408 100.105 287.465 96.0448 289.347 92.441C291.46 88.7517 294.124 85.4883 297.223 82.7905C304.115 76.5935 311.842 71.6374 320.121 68.1038C329.55 64.0128 339.54 61.7417 349.658 61.3887C350.285 61.3672 350.195 62.4465 349.573 62.4679Z" fill="white"/>
<path d="M303.516 78.2473C301.969 75.2613 301.429 71.7623 301.992 68.3752C302.555 64.988 304.185 61.9333 306.591 59.7565C307.079 59.3179 307.716 60.1389 307.227 60.5781C304.984 62.6005 303.466 65.4462 302.947 68.6015C302.429 71.7568 302.944 75.0139 304.399 77.7849C304.715 78.3875 303.83 78.8465 303.516 78.2473Z" fill="white"/>
<path d="M287.164 101.801C293.275 103.696 299.805 102.966 305.452 99.756C306.012 99.4374 306.428 100.417 305.869 100.735C299.987 104.064 293.19 104.808 286.834 102.82C286.229 102.63 286.561 101.612 287.164 101.801Z" fill="white"/>
<path d="M329.503 65.4482C329.885 66.7419 330.55 67.9102 331.439 68.8482C332.329 69.7861 333.414 70.4643 334.597 70.8219C335.205 71.0032 334.871 72.0216 334.268 71.8415C332.962 71.4397 331.764 70.6891 330.78 69.6552C329.795 68.6213 329.054 67.3357 328.621 65.9106C328.57 65.78 328.565 65.6329 328.609 65.4989C328.652 65.365 328.739 65.2544 328.854 65.1896C328.971 65.129 329.105 65.1222 329.226 65.1706C329.348 65.219 329.448 65.3188 329.503 65.4482Z" fill="white"/>
<path d="M365.29 143.383C364.908 143.282 364.526 143.181 364.137 143.085C358.992 141.754 353.758 140.888 348.486 140.497C348.079 140.46 347.666 140.429 347.259 140.404C334.549 139.612 321.818 141.445 309.711 145.811C304.895 147.553 300.205 149.699 295.683 152.23C289.437 155.727 282.916 160.069 276.192 161.043C275.492 161.154 274.786 161.216 274.078 161.229L249.202 132.185C249.176 132.088 249.143 131.996 249.116 131.898L248.075 130.789C248.3 130.64 248.536 130.491 248.761 130.343C248.891 130.256 249.027 130.176 249.157 130.089C249.246 130.033 249.335 129.977 249.412 129.921C249.441 129.903 249.471 129.884 249.494 129.872C249.572 129.816 249.648 129.773 249.72 129.723C251.038 128.888 252.364 128.061 253.698 127.243C253.704 127.236 253.704 127.236 253.716 127.236C263.893 121.032 274.626 115.715 285.746 112.375C286.08 112.275 286.421 112.168 286.767 112.081C291.786 110.607 296.906 109.59 302.075 109.041C304.906 108.75 307.749 108.619 310.592 108.648C317.938 108.737 325.226 110.108 332.189 112.71C346.067 117.9 358.296 127.958 364.803 142.283C364.969 142.65 365.13 143.01 365.29 143.383Z" fill="#F0F0F0"/>
<path d="M364.902 143.668C349.926 131.935 332 125.737 313.668 125.953C309.721 125.922 305.794 126.581 302.032 127.907C298.405 129.33 295.188 131.804 292.714 135.074C290.352 138.071 288.249 141.44 285.272 143.747C283.732 144.904 281.99 145.685 280.159 146.042C278.328 146.398 276.449 146.321 274.647 145.816C270.126 144.685 266.241 141.82 262.53 138.872C258.409 135.598 254.175 132.125 249.06 131.161C248.44 131.044 248.64 129.984 249.259 130.1C258.158 131.779 264.008 140.437 272.222 143.877C276.056 145.482 280.348 145.816 283.97 143.395C287.137 141.278 289.309 137.806 291.676 134.749C294.047 131.52 297.095 128.985 300.552 127.364C304.242 125.83 308.139 125.004 312.078 124.921C320.943 124.578 329.801 125.783 338.329 128.492C348.077 131.525 357.285 136.386 365.556 142.864C366.068 143.265 365.411 144.067 364.902 143.668Z" fill="white"/>
<path d="M319.567 125.498C319.952 122.08 321.419 118.926 323.707 116.597C325.994 114.269 328.953 112.919 332.055 112.788C332.682 112.764 332.746 113.845 332.117 113.869C329.228 113.985 326.472 115.243 324.346 117.416C322.22 119.589 320.864 122.534 320.523 125.719C320.448 126.411 319.493 126.186 319.567 125.498Z" fill="white"/>
<path d="M293.731 133.379C297.582 138.975 303.192 142.755 309.443 143.965C310.062 144.084 309.863 145.145 309.244 145.025C302.742 143.753 296.91 139.806 292.915 133.973C292.534 133.417 293.353 132.826 293.731 133.379Z" fill="white"/>
<path d="M347.261 132.64C346.864 133.928 346.761 135.305 346.962 136.648C347.163 137.991 347.662 139.258 348.413 140.334C348.799 140.885 347.981 141.475 347.596 140.928C346.771 139.734 346.223 138.335 345.997 136.852C345.772 135.369 345.878 133.847 346.305 132.42C346.335 132.281 346.412 132.161 346.519 132.083C346.626 132.005 346.756 131.975 346.883 132C347.009 132.029 347.12 132.114 347.19 132.233C347.261 132.353 347.287 132.5 347.261 132.64Z" fill="white"/>
<path d="M282.51 92.5161H280.582V33.9161C280.582 29.4622 279.792 25.0519 278.256 20.937C276.72 16.8221 274.468 13.0832 271.63 9.9338C268.792 6.7844 265.422 4.28617 261.714 2.58172C258.006 0.877275 254.031 2.40113e-06 250.017 0H138.133C134.119 -9.60414e-06 130.144 0.877245 126.436 2.58168C122.728 4.28611 119.358 6.78434 116.52 9.93373C113.682 13.0831 111.43 16.822 109.894 20.9369C108.358 25.0518 107.568 29.4621 107.568 33.916V355.4C107.568 364.395 110.788 373.022 116.52 379.383C122.252 385.743 130.026 389.316 138.132 389.316H250.017C258.124 389.316 265.898 385.743 271.63 379.383C277.362 373.022 280.582 364.396 280.582 355.4V134.229H282.51V92.5161Z" fill="#3F3D56"/>
<path d="M251.251 8.82376H236.646C237.318 10.6509 237.574 12.6333 237.392 14.5963C237.211 16.5593 236.597 18.4427 235.605 20.0805C234.613 21.7183 233.274 23.0603 231.704 23.9882C230.135 24.9162 228.384 25.4016 226.605 25.4018H162.508C160.73 25.4016 158.979 24.9162 157.409 23.9883C155.84 23.0603 154.5 21.7183 153.508 20.0805C152.516 18.4427 151.903 16.5593 151.721 14.5963C151.54 12.6333 151.796 10.6509 152.468 8.82373H138.827C132.773 8.82373 126.967 11.4922 122.687 16.2422C118.406 20.9921 116.001 27.4344 116.001 34.1519V355.164C116.001 358.49 116.592 361.784 117.739 364.857C118.886 367.93 120.567 370.722 122.687 373.074C124.806 375.426 127.323 377.292 130.092 378.565C132.861 379.837 135.829 380.493 138.827 380.493H251.251C254.248 380.493 257.216 379.837 259.986 378.565C262.755 377.292 265.271 375.426 267.391 373.074C269.51 370.722 271.192 367.93 272.339 364.857C273.486 361.784 274.076 358.491 274.076 355.164V34.1518C274.076 27.4344 271.671 20.9921 267.391 16.2422C263.11 11.4922 257.304 8.82375 251.251 8.82376Z" fill="white"/>
<path d="M197.199 277.371C188.92 277.38 180.721 275.577 173.071 272.065C165.421 268.554 158.47 263.402 152.616 256.907C146.762 250.411 142.12 242.698 138.956 234.209C135.791 225.72 134.166 216.622 134.174 207.436C134.162 194.536 137.37 181.885 143.443 170.886C149.516 159.886 158.215 150.968 168.577 145.12C176.088 140.879 184.287 138.35 192.693 137.681C201.098 137.011 209.54 138.215 217.519 141.222C231.651 146.566 243.615 157.302 251.28 171.519C258.945 185.736 261.813 202.511 259.373 218.855C256.934 235.2 249.345 250.052 237.959 260.769C226.573 271.485 212.129 277.368 197.199 277.371ZM197.199 140.243C187.638 140.212 178.209 142.722 169.701 147.562C162.264 151.767 155.69 157.632 150.393 164.789C145.096 171.946 141.189 180.242 138.919 189.154C136.648 198.067 136.062 207.404 137.198 216.579C138.334 225.755 141.167 234.571 145.52 242.473C149.872 250.376 155.65 257.195 162.49 262.502C169.331 267.81 177.086 271.49 185.269 273.314C193.452 275.137 201.887 275.063 210.043 273.097C218.2 271.131 225.902 267.316 232.666 261.89C235.936 259.271 238.96 256.294 241.693 253.002C249.683 243.409 254.979 231.438 256.932 218.555C258.886 205.673 257.411 192.438 252.689 180.471C247.967 168.505 240.203 158.326 230.347 151.181C220.491 144.035 208.972 140.235 197.199 140.243Z" fill="#F0F0F0"/>
<path d="M60.633 145.371C62.363 145.611 64.0244 146.27 65.5001 147.3C66.9758 148.331 68.23 149.707 69.1744 151.334C70.1188 152.96 70.7303 154.796 70.9659 156.713C71.2015 158.63 71.0555 160.581 70.5382 162.428L91.4783 181.783L83.9822 198.773L54.7567 170.979C52.0173 169.809 49.7598 167.564 48.4121 164.67C47.0644 161.777 46.7201 158.435 47.4445 155.279C48.1688 152.122 49.9115 149.37 52.3422 147.544C54.7729 145.718 57.7229 144.945 60.633 145.371Z" fill="#FFB6B6"/>
<path d="M256.204 226.085C255.784 221.076 254.047 212.071 252.574 208.741C248.046 195.588 218.784 184.777 214.854 183.384L213.857 171.088L173.2 166.234L168.043 181.958L153.461 188.028C152.47 188.438 151.574 189.085 150.837 189.924C150.099 190.764 149.537 191.774 149.193 192.882L136.11 197.078L123.2 201.22L78.3496 166.151L76.232 167.687L62.0784 177.935L59.8949 179.517L117.936 237.622L139.496 232.009L155.71 227.777L157.093 234.011L153.51 255.915C163.892 267.44 177.636 274.484 192.275 275.782C206.914 277.08 221.491 272.549 233.391 263L242.602 253.931C249.021 246.229 253.759 236.993 256.451 226.936L256.204 226.085Z" fill="#E4E4E4"/>
<path d="M206.303 156.178C221.651 150.539 229.974 132.162 224.892 115.131C219.811 98.1 203.249 88.8648 187.901 94.5036C172.553 100.142 164.231 118.52 169.312 135.55C174.394 152.581 190.955 161.816 206.303 156.178Z" fill="#FFB6B6"/>
<path d="M173.979 88.3091C176.825 83.7993 181.096 80.6426 185.943 79.4664C190.736 78.3726 195.723 79.3878 199.854 82.2977C204.346 80.29 209.189 78.9579 213.947 79.6351C218.705 80.3123 223.368 83.2614 225.57 88.1199C226.033 89.3785 226.595 90.5895 227.249 91.7389C229.189 94.6105 232.793 94.9829 235.977 95.1209C234.367 96.1625 232.758 97.2041 231.148 98.2456C232.752 99.0751 234.356 99.9047 235.961 100.734C233.777 101.659 231.594 102.584 229.41 103.509C234.492 108.466 235.722 117.288 233.797 124.684C231.975 131.687 227.798 137.582 223.134 142.628C222.224 138.863 223.225 134.78 223.892 130.881C224.596 126.762 224.709 121.945 222.109 119.037C220.356 117.075 217.784 116.482 215.359 116.006C203.125 113.605 190.779 111.979 178.379 111.134C176.719 110.879 175.029 111.071 173.45 111.692C170.432 113.18 169.22 117.267 168.345 120.89C167.926 114.53 168.261 108.137 169.34 101.873C170.168 97.0797 171.471 92.2818 173.979 88.3091Z" fill="#2F2E41"/>
<path d="M212.028 310.321H177.426C176.225 310.321 175.072 309.791 174.222 308.848C173.373 307.905 172.895 306.626 172.895 305.293C172.895 303.959 173.373 302.68 174.222 301.737C175.072 300.794 176.225 300.265 177.426 300.265H212.028C213.23 300.265 214.383 300.794 215.232 301.737C216.082 302.68 216.56 303.959 216.56 305.293C216.56 306.626 216.082 307.905 215.232 308.848C214.383 309.791 213.23 310.321 212.028 310.321Z" fill="#006AAC"/>
<path d="M98.4858 41.2528H3.31011C2.43307 41.2512 1.5924 40.8635 0.972724 40.1748C0.353049 39.4861 0.00500488 38.5527 0.00500488 37.5795C0.00500488 36.6063 0.353049 35.6729 0.972724 34.9842C1.5924 34.2955 2.43307 33.9078 3.31011 33.9062H98.4858C99.3638 33.9062 100.206 34.2933 100.827 34.9821C101.447 35.671 101.796 36.6053 101.796 37.5795C101.796 38.5537 101.447 39.488 100.827 40.1769C100.206 40.8658 99.3638 41.2528 98.4858 41.2528Z" fill="#006AAC"/>
<path d="M153.437 64.7137H3.31011C2.43221 64.7137 1.59027 64.3268 0.969504 63.6379C0.348738 62.9491 0 62.0149 0 61.0407C0 60.0666 0.348738 59.1323 0.969504 58.4435C1.59027 57.7547 2.43221 57.3677 3.31011 57.3677H153.437C154.315 57.3677 155.157 57.7547 155.778 58.4435C156.399 59.1323 156.747 60.0666 156.747 61.0407C156.747 62.0149 156.399 62.9491 155.778 63.6379C155.157 64.3268 154.315 64.7137 153.437 64.7137Z" fill="#006AAC"/>
<path d="M124.588 86.816H3.31017C2.43227 86.816 1.59033 86.4291 0.969566 85.7402C0.3488 85.0514 6.10352e-05 84.1172 6.10352e-05 83.143C6.10352e-05 82.1689 0.3488 81.2346 0.969566 80.5458C1.59033 79.8569 2.43227 79.47 3.31017 79.47H124.588C125.465 79.47 126.307 79.8569 126.928 80.5458C127.549 81.2346 127.898 82.1689 127.898 83.143C127.898 84.1172 127.549 85.0514 126.928 85.7402C126.307 86.4291 125.465 86.816 124.588 86.816Z" fill="#CACACA"/>
<path d="M71.6977 108.837H3.31017C2.43227 108.837 1.59033 108.45 0.969566 107.761C0.3488 107.073 6.10352e-05 106.138 6.10352e-05 105.164C6.10352e-05 104.19 0.3488 103.256 0.969566 102.567C1.59033 101.878 2.43227 101.491 3.31017 101.491H71.6977C72.5756 101.491 73.4175 101.878 74.0382 102.567C74.659 103.256 75.0077 104.19 75.0077 105.164C75.0077 106.138 74.659 107.073 74.0382 107.761C73.4175 108.45 72.5756 108.837 71.6977 108.837Z" fill="#CACACA"/>
<path d="M109.476 130.857H3.31007C2.43308 130.855 1.59249 130.468 0.972857 129.779C0.353219 129.09 0.00518799 128.157 0.00518799 127.184C0.00518799 126.211 0.353219 125.277 0.972857 124.589C1.59249 123.9 2.43308 123.512 3.31007 123.511H109.476C110.353 123.512 111.194 123.9 111.814 124.589C112.433 125.277 112.781 126.211 112.781 127.184C112.781 128.157 112.433 129.09 111.814 129.779C111.194 130.468 110.353 130.855 109.476 130.857Z" fill="#CACACA"/>
<path d="M408.682 490.211L400.152 490.21L396.094 453.699L408.684 453.7L408.682 490.211Z" fill="#9F616A"/>
<path d="M412.038 503.311L379.471 503.309V502.852C379.471 499.122 380.807 495.544 383.184 492.906C385.561 490.268 388.785 488.787 392.147 488.786H392.148L398.097 483.778L409.196 488.787L412.039 488.787L412.038 503.311Z" fill="#2F2E41"/>
<path d="M403.712 318.618L399.95 267.717L396.994 248.612L413.542 244.556L419.033 270.713L414.249 320.03C415.214 321.343 415.803 322.945 415.941 324.632C416.079 326.319 415.76 328.013 415.024 329.496C414.287 330.98 413.168 332.185 411.81 332.958C410.452 333.73 408.916 334.035 407.401 333.832C405.886 333.628 404.46 332.927 403.306 331.818C402.153 330.709 401.325 329.242 400.928 327.607C400.531 325.971 400.585 324.241 401.081 322.64C401.577 321.038 402.493 319.637 403.712 318.618Z" fill="#9F616A"/>
<path d="M363.37 490.211L354.84 490.21L350.782 453.699L363.372 453.7L363.37 490.211Z" fill="#9F616A"/>
<path d="M349.718 330.157L345.937 337.416C345.937 337.416 341.782 338.675 343.14 353.705C344.498 368.735 344.556 457.785 351.129 468.743L352.319 478.152L364.732 479.469L365.045 471.119L379.845 355.124C379.845 355.124 388.563 468.995 395.774 471.781L398.378 481.268L409.754 481.273L409.082 470.094L409.816 328.98L349.718 330.157Z" fill="#2F2E41"/>
<path d="M345.561 336.863L345.299 336.788C353.104 304.392 350.853 262.443 345.342 217.398L345.342 217.212L365.266 196.962H382.567L399.718 209.244C410.806 215.395 413.325 228.422 413.35 228.554L413.367 228.646L406.573 254.96L411.691 331.06L411.697 331.148L411.668 331.23C410.011 335.891 405.573 335.227 400.433 334.458C395.303 333.691 376.396 340.71 370.599 340.71C359.27 340.71 346.37 337.093 345.561 336.863Z" fill="#E4E4E4"/>
<path d="M396.126 219.5L403.558 215.912L413.351 229.234L421.288 271.925L394.101 267.354L396.126 219.5Z" fill="#E4E4E4"/>
<path d="M281.808 298.221L315.785 263.77L327.593 249.484L340.61 261.525L325.328 282.351L287.25 308.333C286.905 309.983 286.124 311.481 285.006 312.634C283.888 313.788 282.485 314.544 280.977 314.806C279.469 315.068 277.925 314.823 276.543 314.104C275.161 313.385 274.005 312.223 273.222 310.769C272.44 309.315 272.067 307.635 272.152 305.944C272.237 304.252 272.775 302.628 273.698 301.279C274.621 299.93 275.886 298.918 277.331 298.374C278.777 297.829 280.336 297.776 281.808 298.221Z" fill="#9F616A"/>
<path d="M315.045 264.145L324.455 250.585C324.533 250.39 332.341 231.03 339.108 222.618C346.05 213.989 351.516 218.402 351.57 218.45L351.706 218.564L352.084 250.429L326.027 284.978L315.045 264.145Z" fill="#E4E4E4"/>
<path d="M387.855 177.888C389.258 168.294 383.387 159.254 374.741 157.697C366.095 156.14 357.948 162.656 356.545 172.25C355.142 181.844 361.014 190.883 369.66 192.44C378.306 193.997 386.452 187.482 387.855 177.888Z" fill="#9F616A"/>
<path d="M357.701 172.456C357.701 172.456 357.574 166.27 356.869 163.532C356.164 160.794 354.754 158.448 355.459 158.448C356.164 158.448 356.516 156.492 356.516 156.492C356.516 156.492 357.221 156.101 357.574 156.492C357.926 156.884 358.279 153.755 358.279 153.755C358.279 153.755 358.631 152.582 358.983 153.364C359.336 154.146 359.336 153.755 359.688 152.582C360.041 151.408 361.803 150.626 361.803 150.626C361.803 150.626 368.499 151.017 369.557 149.453C370.614 147.889 382.597 149.062 385.064 151.017C387.531 152.973 398.457 160.012 396.695 165.878C394.933 171.745 389.86 185.252 388.589 186.606C386.578 188.747 385.187 189.519 375.675 191.619C373.814 192.03 364.313 185.288 364.313 184.115C364.313 182.941 365.458 179.221 363.617 178.71C360.833 177.938 360.52 181.842 359.815 180.669C359.111 179.496 357.701 172.456 357.701 172.456Z" fill="#2F2E41"/>
<path d="M366.726 503.311L334.159 503.309V502.852C334.159 499.122 335.494 495.544 337.872 492.906C340.249 490.268 343.473 488.787 346.835 488.786H346.836L352.785 483.778L363.884 488.787L366.727 488.787L366.726 503.311Z" fill="#2F2E41"/>
<path d="M536.019 504H2.74181C2.48164 504 2.23215 503.885 2.04819 503.681C1.86422 503.477 1.76086 503.2 1.76086 502.911C1.76086 502.623 1.86422 502.346 2.04819 502.142C2.23215 501.938 2.48164 501.823 2.74181 501.823H536.019C536.279 501.823 536.529 501.938 536.713 502.142C536.897 502.346 537 502.623 537 502.911C537 503.2 536.897 503.477 536.713 503.681C536.529 503.885 536.279 504 536.019 504Z" fill="#CACACA"/>
</g>
<defs>
<clipPath id="clip0_3_230">
<rect width="537" height="504" fill="white"/>
</clipPath>
</defs>
</svg>
