<svg width="1728" height="755" viewBox="0 0 1728 755" fill="none" xmlns="http://www.w3.org/2000/svg">
<path d="M65 715.825C-25.8 756.526 -63.5 656.47 -71 601.354L1767 544.373C1745.67 601.524 1698.7 711.959 1681.5 696.493C1660 677.16 1609.5 696.493 1599 653.757C1590.6 619.568 1542.5 639.511 1519.5 653.757C1490.33 683.943 1428.3 738.618 1413.5 715.825C1395 687.335 1313.5 734.65 1282.5 679.195C1251.5 623.74 1178 726.509 1171.5 696.493C1165 666.476 1073.5 679.195 1047 704.633C1020.5 730.071 842.5 781.964 860 715.825C874 662.914 761.833 686.317 704 704.633C670.167 721.422 586.6 755 523 755C443.5 755 443.5 703.106 401.5 679.195C359.5 655.283 322 736.176 259.5 726.509C197 716.843 178.5 664.949 65 715.825Z" fill="#E4F6FF"/>
<path d="M174.557 85.947C155.552 31.7821 59.5255 -16.6381 -33 137.65C556.662 158.167 1734.79 186.891 1729.99 137.65C1723.98 76.0988 1639.46 106.464 1621.96 55.5818C1604.45 4.69958 1483.92 101.54 1483.92 19.4719C1483.92 -62.5962 1160.83 145.036 1157.33 85.947C1153.83 26.858 1020.29 17.0098 927.765 32.6027C835.239 48.1957 797.229 96.6158 761.219 55.5818C725.209 14.5478 676.195 3.87894 538.157 85.947C400.119 168.015 449.633 19.4719 371.111 19.4719C292.59 19.4719 193.562 140.112 174.557 85.947Z" fill="#E4F6FF"/>
<rect x="-226" y="101.752" width="2022" height="506.725" fill="#E4F6FF"/>
</svg>
